# xmcd
#
# Track frame offsets: 
#        150
#        27024
#        48279
#        81357
#        99297
#        122186
#        138647
#        162098
#        178075
#        196687
#        216566
#        243173
#
# Disc length: 3638 seconds
#
# Revision: 0
# Processed by: cddbd v1.5.2PL0 Copyright (c) Steve Scherf et al.
# Submitted via: ExactAudioCopy v1.3
#
DISCID=9f0e340c
DTITLE=Gerry Joe Weise - Blues Gone Wild
DYEAR=2016
DGENRE=Blues Rock, Chicago Blues
TTITLE0=Surfing Coffs Harbour
TTITLE1=Inside Looking out (Live)
TTITLE2=Song for Sylvie
TTITLE3=Crazy Crocodile
TTITLE4=Aussie Boogie (Live)
TTITLE5=Dreamtime Lullaby
TTITLE6=Red House (Live)
TTITLE7=Back to Blacktown
TTITLE8=B Good 2 Me Jam (Remix)
TTITLE9=Uluru Express
TTITLE10=Bondi Soul Ride
TTITLE11=Night Drive
EXTD=
EXTT0=
EXTT1=
EXTT2=
EXTT3=
EXTT4=
EXTT5=
EXTT6=
EXTT7=
EXTT8=
EXTT9=
EXTT10=
EXTT11=
PLAYORDER=
